<?xml version="1.0" encoding="UTF-8" standalone="no"?>
<!DOCTYPE svg PUBLIC "-//W3C//DTD SVG 1.1//EN"
 "http://www.w3.org/Graphics/SVG/1.1/DTD/svg11.dtd">
<!-- Generated by graphviz version 5.0.0 (20220707.1540)
 -->
<!-- Title: dependencies Pages: 1 -->
<svg width="719pt" height="247pt"
 viewBox="0.00 0.00 719.00 246.80" xmlns="http://www.w3.org/2000/svg" xmlns:xlink="http://www.w3.org/1999/xlink">
<g id="graph0" class="graph" transform="scale(1 1) rotate(0) translate(4 242.8)">
<title>dependencies</title>
<polygon fill="white" stroke="transparent" points="-4,4 -4,-242.8 715,-242.8 715,4 -4,4"/>
<text text-anchor="middle" x="355.5" y="-8.2" font-family="sans-serif" font-size="14.00">dependencies</text>
<g id="clust1" class="cluster">
<title>cluster_ComponentsModule</title>
<polygon fill="none" stroke="black" stroke-dasharray="1,5" points="8,-32.8 8,-230.8 703,-230.8 703,-32.8 8,-32.8"/>
</g>
<g id="clust2" class="cluster">
<title>cluster_ComponentsModule_declarations</title>
<polygon fill="none" stroke="black" points="24,-40.8 24,-92.8 690,-92.8 690,-40.8 24,-40.8"/>
</g>
<g id="clust8" class="cluster">
<title>cluster_ComponentsModule_exports</title>
<polygon fill="none" stroke="black" points="16,-170.8 16,-222.8 695,-222.8 695,-170.8 16,-170.8"/>
</g>
<!-- PkmButtonComponent -->
<g id="node1" class="node">
<title>PkmButtonComponent</title>
<polygon fill="#ffffb3" stroke="black" points="681.62,-84.8 536.38,-84.8 536.38,-48.8 681.62,-48.8 681.62,-84.8"/>
<text text-anchor="middle" x="609" y="-62.6" font-family="Times,serif" font-size="14.00">PkmButtonComponent</text>
</g>
<!-- ComponentsModule -->
<g id="node5" class="node">
<title>ComponentsModule</title>
<polygon fill="#8dd3c7" stroke="black" points="350.33,-149.8 347.33,-153.8 326.33,-153.8 323.33,-149.8 219.67,-149.8 219.67,-113.8 350.33,-113.8 350.33,-149.8"/>
<text text-anchor="middle" x="285" y="-127.6" font-family="Times,serif" font-size="14.00">ComponentsModule</text>
</g>
<!-- PkmButtonComponent&#45;&gt;ComponentsModule -->
<g id="edge1" class="edge">
<title>PkmButtonComponent&#45;&gt;ComponentsModule</title>
<path fill="none" stroke="black" d="M633.94,-85.07C633.94,-103.36 633.94,-128.8 633.94,-128.8 633.94,-128.8 360.22,-128.8 360.22,-128.8"/>
<polygon fill="black" stroke="black" points="360.22,-125.3 350.22,-128.8 360.22,-132.3 360.22,-125.3"/>
</g>
<!-- PkmCardComponent -->
<g id="node2" class="node">
<title>PkmCardComponent</title>
<polygon fill="#ffffb3" stroke="black" points="518.22,-84.8 383.78,-84.8 383.78,-48.8 518.22,-48.8 518.22,-84.8"/>
<text text-anchor="middle" x="451" y="-62.6" font-family="Times,serif" font-size="14.00">PkmCardComponent</text>
</g>
<!-- PkmCardComponent&#45;&gt;ComponentsModule -->
<g id="edge2" class="edge">
<title>PkmCardComponent&#45;&gt;ComponentsModule</title>
<path fill="none" stroke="black" d="M473.37,-84.81C473.37,-100.85 473.37,-121.8 473.37,-121.8 473.37,-121.8 360.35,-121.8 360.35,-121.8"/>
<polygon fill="black" stroke="black" points="360.35,-118.3 350.35,-121.8 360.35,-125.3 360.35,-118.3"/>
</g>
<!-- PkmFavButtonComponent -->
<g id="node3" class="node">
<title>PkmFavButtonComponent</title>
<polygon fill="#ffffb3" stroke="black" points="366.12,-84.8 199.88,-84.8 199.88,-48.8 366.12,-48.8 366.12,-84.8"/>
<text text-anchor="middle" x="283" y="-62.6" font-family="Times,serif" font-size="14.00">PkmFavButtonComponent</text>
</g>
<!-- PkmFavButtonComponent&#45;&gt;ComponentsModule -->
<g id="edge3" class="edge">
<title>PkmFavButtonComponent&#45;&gt;ComponentsModule</title>
<path fill="none" stroke="black" d="M285,-84.91C285,-84.91 285,-103.79 285,-103.79"/>
<polygon fill="black" stroke="black" points="281.5,-103.79 285,-113.79 288.5,-103.79 281.5,-103.79"/>
</g>
<!-- PkmTopBarComponent -->
<g id="node4" class="node">
<title>PkmTopBarComponent</title>
<polygon fill="#ffffb3" stroke="black" points="181.77,-84.8 32.23,-84.8 32.23,-48.8 181.77,-48.8 181.77,-84.8"/>
<text text-anchor="middle" x="107" y="-62.6" font-family="Times,serif" font-size="14.00">PkmTopBarComponent</text>
</g>
<!-- PkmTopBarComponent&#45;&gt;ComponentsModule -->
<g id="edge4" class="edge">
<title>PkmTopBarComponent&#45;&gt;ComponentsModule</title>
<path fill="none" stroke="black" d="M129.13,-84.82C129.13,-102.17 129.13,-125.8 129.13,-125.8 129.13,-125.8 209.8,-125.8 209.8,-125.8"/>
<polygon fill="black" stroke="black" points="209.8,-129.3 219.8,-125.8 209.8,-122.3 209.8,-129.3"/>
</g>
<!-- PkmButtonComponent  -->
<g id="node6" class="node">
<title>PkmButtonComponent </title>
<polygon fill="#fb8072" stroke="black" points="687.12,-214.8 538.88,-214.8 538.88,-178.8 687.12,-178.8 687.12,-214.8"/>
<text text-anchor="middle" x="613" y="-192.6" font-family="Times,serif" font-size="14.00">PkmButtonComponent </text>
</g>
<!-- ComponentsModule&#45;&gt;PkmButtonComponent  -->
<g id="edge5" class="edge">
<title>ComponentsModule&#45;&gt;PkmButtonComponent </title>
<path fill="none" stroke="black" stroke-dasharray="5,2" d="M350.38,-135.8C439,-135.8 586.31,-135.8 586.31,-135.8 586.31,-135.8 586.31,-168.5 586.31,-168.5"/>
<polygon fill="black" stroke="black" points="582.81,-168.5 586.31,-178.5 589.81,-168.5 582.81,-168.5"/>
</g>
<!-- PkmCardComponent  -->
<g id="node7" class="node">
<title>PkmCardComponent </title>
<polygon fill="#fb8072" stroke="black" points="520.72,-214.8 383.28,-214.8 383.28,-178.8 520.72,-178.8 520.72,-214.8"/>
<text text-anchor="middle" x="452" y="-192.6" font-family="Times,serif" font-size="14.00">PkmCardComponent </text>
</g>
<!-- ComponentsModule&#45;&gt;PkmCardComponent  -->
<g id="edge6" class="edge">
<title>ComponentsModule&#45;&gt;PkmCardComponent </title>
<path fill="none" stroke="black" stroke-dasharray="5,2" d="M350.51,-142.8C388.39,-142.8 428.63,-142.8 428.63,-142.8 428.63,-142.8 428.63,-168.52 428.63,-168.52"/>
<polygon fill="black" stroke="black" points="425.13,-168.52 428.63,-178.52 432.13,-168.52 425.13,-168.52"/>
</g>
<!-- PkmFavButtonComponent  -->
<g id="node8" class="node">
<title>PkmFavButtonComponent </title>
<polygon fill="#fb8072" stroke="black" points="364.62,-214.8 195.38,-214.8 195.38,-178.8 364.62,-178.8 364.62,-214.8"/>
<text text-anchor="middle" x="280" y="-192.6" font-family="Times,serif" font-size="14.00">PkmFavButtonComponent </text>
</g>
<!-- ComponentsModule&#45;&gt;PkmFavButtonComponent  -->
<g id="edge7" class="edge">
<title>ComponentsModule&#45;&gt;PkmFavButtonComponent </title>
<path fill="none" stroke="black" stroke-dasharray="5,2" d="M285,-149.91C285,-149.91 285,-168.79 285,-168.79"/>
<polygon fill="black" stroke="black" points="281.5,-168.79 285,-178.79 288.5,-168.79 281.5,-168.79"/>
</g>
<!-- PkmTopBarComponent  -->
<g id="node9" class="node">
<title>PkmTopBarComponent </title>
<polygon fill="#fb8072" stroke="black" points="177.77,-214.8 24.23,-214.8 24.23,-178.8 177.77,-178.8 177.77,-214.8"/>
<text text-anchor="middle" x="101" y="-192.6" font-family="Times,serif" font-size="14.00">PkmTopBarComponent </text>
</g>
<!-- ComponentsModule&#45;&gt;PkmTopBarComponent  -->
<g id="edge8" class="edge">
<title>ComponentsModule&#45;&gt;PkmTopBarComponent </title>
<path fill="none" stroke="black" stroke-dasharray="5,2" d="M219.77,-137.8C159.96,-137.8 80.62,-137.8 80.62,-137.8 80.62,-137.8 80.62,-168.78 80.62,-168.78"/>
<polygon fill="black" stroke="black" points="77.12,-168.78 80.62,-178.78 84.12,-168.78 77.12,-168.78"/>
</g>
</g>
</svg>
