<?xml version="1.0" encoding="UTF-8" standalone="no"?>
<!DOCTYPE svg PUBLIC "-//W3C//DTD SVG 1.1//EN"
 "http://www.w3.org/Graphics/SVG/1.1/DTD/svg11.dtd">
<!-- Generated by graphviz version 5.0.0 (20220707.1540)
 -->
<!-- Title: dependencies Pages: 1 -->
<svg width="645pt" height="174pt"
 viewBox="0.00 0.00 645.00 173.80" xmlns="http://www.w3.org/2000/svg" xmlns:xlink="http://www.w3.org/1999/xlink">
<g id="graph0" class="graph" transform="scale(1 1) rotate(0) translate(4 169.8)">
<title>dependencies</title>
<polygon fill="white" stroke="transparent" points="-4,4 -4,-169.8 641,-169.8 641,4 -4,4"/>
<text text-anchor="middle" x="318.5" y="-8.2" font-family="sans-serif" font-size="14.00">dependencies</text>
<g id="clust1" class="cluster">
<title>cluster_PagesModule</title>
<polygon fill="none" stroke="black" stroke-dasharray="1,5" points="8,-32.8 8,-157.8 629,-157.8 629,-32.8 8,-32.8"/>
</g>
<g id="clust6" class="cluster">
<title>cluster_PagesModule_imports</title>
<polygon fill="none" stroke="black" points="467,-40.8 467,-92.8 621,-92.8 621,-40.8 467,-40.8"/>
</g>
<g id="clust2" class="cluster">
<title>cluster_PagesModule_declarations</title>
<polygon fill="none" stroke="black" points="16,-40.8 16,-92.8 459,-92.8 459,-40.8 16,-40.8"/>
</g>
<!-- DashboardComponent -->
<g id="node1" class="node">
<title>DashboardComponent</title>
<polygon fill="#ffffb3" stroke="black" points="450.98,-84.8 309.02,-84.8 309.02,-48.8 450.98,-48.8 450.98,-84.8"/>
<text text-anchor="middle" x="380" y="-62.6" font-family="Times,serif" font-size="14.00">DashboardComponent</text>
</g>
<!-- PagesModule -->
<g id="node4" class="node">
<title>PagesModule</title>
<polygon fill="#8dd3c7" stroke="black" points="352.21,-149.8 349.21,-153.8 328.21,-153.8 325.21,-149.8 259.79,-149.8 259.79,-113.8 352.21,-113.8 352.21,-149.8"/>
<text text-anchor="middle" x="306" y="-127.6" font-family="Times,serif" font-size="14.00">PagesModule</text>
</g>
<!-- DashboardComponent&#45;&gt;PagesModule -->
<g id="edge1" class="edge">
<title>DashboardComponent&#45;&gt;PagesModule</title>
<path fill="none" stroke="black" d="M330.56,-84.91C330.56,-84.91 330.56,-103.79 330.56,-103.79"/>
<polygon fill="black" stroke="black" points="327.06,-103.79 330.56,-113.79 334.06,-103.79 327.06,-103.79"/>
</g>
<!-- DetailComponent -->
<g id="node2" class="node">
<title>DetailComponent</title>
<polygon fill="#ffffb3" stroke="black" points="290.54,-84.8 175.46,-84.8 175.46,-48.8 290.54,-48.8 290.54,-84.8"/>
<text text-anchor="middle" x="233" y="-62.6" font-family="Times,serif" font-size="14.00">DetailComponent</text>
</g>
<!-- DetailComponent&#45;&gt;PagesModule -->
<g id="edge2" class="edge">
<title>DetailComponent&#45;&gt;PagesModule</title>
<path fill="none" stroke="black" d="M275.33,-84.91C275.33,-84.91 275.33,-103.79 275.33,-103.79"/>
<polygon fill="black" stroke="black" points="271.83,-103.79 275.33,-113.79 278.83,-103.79 271.83,-103.79"/>
</g>
<!-- FavoritesComponent -->
<g id="node3" class="node">
<title>FavoritesComponent</title>
<polygon fill="#ffffb3" stroke="black" points="157.94,-84.8 24.06,-84.8 24.06,-48.8 157.94,-48.8 157.94,-84.8"/>
<text text-anchor="middle" x="91" y="-62.6" font-family="Times,serif" font-size="14.00">FavoritesComponent</text>
</g>
<!-- FavoritesComponent&#45;&gt;PagesModule -->
<g id="edge3" class="edge">
<title>FavoritesComponent&#45;&gt;PagesModule</title>
<path fill="none" stroke="black" d="M91,-84.91C91,-104.14 91,-131.8 91,-131.8 91,-131.8 249.88,-131.8 249.88,-131.8"/>
<polygon fill="black" stroke="black" points="249.88,-135.3 259.88,-131.8 249.88,-128.3 249.88,-135.3"/>
</g>
<!-- PagesRoutingModule -->
<g id="node5" class="node">
<title>PagesRoutingModule</title>
<polygon fill="#8dd3c7" stroke="black" points="612.83,-84.8 609.83,-88.8 588.83,-88.8 585.83,-84.8 475.17,-84.8 475.17,-48.8 612.83,-48.8 612.83,-84.8"/>
<text text-anchor="middle" x="544" y="-62.6" font-family="Times,serif" font-size="14.00">PagesRoutingModule</text>
</g>
<!-- PagesRoutingModule&#45;&gt;PagesModule -->
<g id="edge4" class="edge">
<title>PagesRoutingModule&#45;&gt;PagesModule</title>
<path fill="none" stroke="black" d="M544,-84.91C544,-104.14 544,-131.8 544,-131.8 544,-131.8 362.17,-131.8 362.17,-131.8"/>
<polygon fill="black" stroke="black" points="362.17,-128.3 352.17,-131.8 362.17,-135.3 362.17,-128.3"/>
</g>
</g>
</svg>
